<svg className="logo" xmlns="http://www.w3.org/2000/svg" width="458" height="458"><path d="M173.788 191.81c-3.797-.871-8.172-1.404-13.114-1.606-4.948-.192-10.073.022-15.371.654a228.344 228.344 0 0 0-2.79 6.65 351.4 351.4 0 0 0-2.967 7.596 453.936 453.936 0 0 0-2.852 7.713 339.64 339.64 0 0 0-2.434 7.007 189.637 189.637 0 0 0-3.441 12.581c-.946 4.036-1.702 7.838-2.254 11.396-.081.394-.161.787-.239 1.188-.158.868-.276 1.94-.356 3.202-.478 4.037-.655 7.598-.534 10.683.121 3.086.493 5.662 1.129 7.718.396 1.739.97 3.345 1.721 4.809.75 1.463 1.68 2.706 2.79 3.739-1.11.709-2.357 1.283-3.743 1.72a14.347 14.347 0 0 1-4.331.654c-1.503 0-3.006-.22-4.51-.654-1.501-.437-2.97-1.128-4.39-2.073-1.029-.717-1.863-1.663-2.493-2.853-.635-1.188-1.128-2.512-1.482-3.976-.36-1.466-.576-3.047-.654-4.752a52.379 52.379 0 0 1 0-5.044c.158-3.875.67-8.07 1.541-12.581.158-1.5.394-2.985.71-4.451.316-1.461.676-2.986 1.072-4.57a199.194 199.194 0 0 1 2.909-10.206 226.927 226.927 0 0 1 3.382-9.97 188.53 188.53 0 0 1 1.603-4.573 213.523 213.523 0 0 1 2.254-5.934c.831-2.096 1.661-4.173 2.492-6.232.831-2.058 1.6-3.875 2.316-5.459l-3.206 1.066-1.187.357-.474.235c-3.008 1.111-5.739 2.375-8.191 3.801l-.115.115h-.121l-3.68 2.26c-3.646 2.294-6.451 4.291-8.429 5.99-1.981 1.705-3.482 3.146-4.511 4.334-1.188 1.426-1.898 2.611-2.136 3.562-.397.871-.497 1.603-.298 2.195.198.595.574 1.088 1.129 1.485.551.394 1.264.692 2.135.89.872.198 1.78.341 2.732.415 2.214.239 4.905.199 8.073-.118-1.032 1.11-2.341 2.059-3.919 2.847a18.216 18.216 0 0 1-5.106 1.661c-1.817.32-3.68.338-5.577.062-1.901-.276-3.603-.967-5.106-2.08-1.501-1.103-2.769-2.688-3.795-4.744-1.029-2.058-1.584-4.708-1.665-7.952-.077-2.455.298-4.709 1.129-6.771a20.945 20.945 0 0 1 3.382-5.636 27.073 27.073 0 0 1 4.927-4.566 68.065 68.065 0 0 1 5.639-3.683c4.51-2.53 9.691-4.586 15.551-6.173a103.372 103.372 0 0 1 12.643-2.611c4.389-.632 8.838-.988 13.352-1.069h11.276c4.985.161 9.04.474 12.166.952 3.127.471 5.58 1.007 7.362 1.599 1.78.596 3.045 1.172 3.798 1.724.751.552 1.243 1.026 1.482 1.423.078.077.121.161.121.236 0 .081.034.201.118.36.313 1.029.434 1.956.353 2.787-.074.83-.198 1.562-.353 2.194a10.85 10.85 0 0 1-.831 1.901c-.316-.158-.67-.316-1.067-.474a15.02 15.02 0 0 0-1.429-.474 21.772 21.772 0 0 0-2.136-.476"/><path d="M171.537 218.75c.787.084 1.993.316 3.618.716 1.621.397 3.165 1.268 4.628 2.61 1.464 1.346 2.589 3.306 3.383 5.875.794 2.574.794 6.074 0 10.507 1.345.555 2.908.754 4.69.589 1.78-.155 2.983-.431 3.621-.827.236.474.478.911.71 1.305.162.396.277.831.357 1.306.078.478.04.911-.117 1.308-.401 1.11-1.309 2.077-2.732 2.908-1.423.831-4.037 1.169-7.834 1.008a80.623 80.623 0 0 1-1.96 6.23 29.92 29.92 0 0 1-2.846 5.875 20.932 20.932 0 0 1-4.154 4.81c-1.628 1.386-3.503 2.355-5.64 2.908-3.959.951-7.54.951-10.745 0-3.203-.949-5.856-2.589-7.952-4.924-2.096-2.334-3.559-5.202-4.39-8.606-.831-3.4-.772-7.006.176-10.801.872-3.801 2.276-7.187 4.214-10.153 1.938-2.967 4.157-5.438 6.647-7.419 2.496-1.975 5.165-3.419 8.014-4.331 2.849-.908 5.618-1.206 8.312-.894m2.015 25.764c-.952-.479-1.643-1.188-2.077-2.139-.437-.949-.614-1.997-.537-3.144.081-1.15.456-2.258 1.129-3.327.673-1.066 1.72-1.916 3.147-2.548 0 .077.037.157.117.235-.08-1.739-.375-3.104-.889-4.096-.515-.985-1.147-1.703-1.901-2.135-.753-.438-1.522-.633-2.313-.593a8.385 8.385 0 0 0-2.254.416c-1.348.552-2.631 1.602-3.859 3.143s-2.276 3.324-3.147 5.346a31.098 31.098 0 0 0-1.959 6.347c-.435 2.216-.534 4.256-.295 6.113.236 1.863.853 3.403 1.838 4.629.99 1.228 2.434 1.882 4.334 1.959 1.262 0 2.394-.298 3.383-.89a8.895 8.895 0 0 0 2.552-2.315c.716-.952 1.286-2.037 1.72-3.262a24.942 24.942 0 0 0 1.011-3.739"/><path d="M217.114 218.75c.79.084 1.999.316 3.621.716 1.619.397 3.162 1.268 4.628 2.61 1.464 1.346 2.592 3.306 3.383 5.875.791 2.574.791 6.074 0 10.507 1.346.555 2.907.754 4.69.589 1.779-.155 2.982-.431 3.621-.827.235.474.471.911.71 1.305.158.396.276.831.356 1.306.078.478.041.911-.117 1.308-.4 1.11-1.309 2.077-2.731 2.908-1.427.831-4.037 1.169-7.834 1.008a78.078 78.078 0 0 1-1.959 6.23 29.822 29.822 0 0 1-2.85 5.875 20.943 20.943 0 0 1-4.151 4.81c-1.624 1.386-3.506 2.355-5.642 2.908-3.956.951-7.534.951-10.743 0-3.205-.949-5.856-2.589-7.949-4.924-2.098-2.334-3.565-5.202-4.396-8.606-.831-3.4-.769-7.006.18-10.801.871-3.801 2.272-7.187 4.216-10.153 1.938-2.967 4.152-5.438 6.644-7.419 2.493-1.975 5.165-3.419 8.014-4.331 2.847-.908 5.618-1.206 8.309-.894m2.018 25.764c-.948-.479-1.643-1.188-2.08-2.139-.434-.949-.611-1.997-.533-3.144.077-1.15.455-2.258 1.128-3.327.673-1.066 1.724-1.916 3.147-2.548 0 .077.037.157.118.235-.081-1.739-.375-3.104-.89-4.096-.515-.985-1.147-1.703-1.901-2.135-.753-.438-1.525-.633-2.315-.593a8.422 8.422 0 0 0-2.254.416c-1.346.552-2.632 1.602-3.86 3.143-1.225 1.541-2.272 3.324-3.144 5.346a30.912 30.912 0 0 0-1.959 6.347c-.434 2.216-.533 4.256-.295 6.113.236 1.863.847 3.403 1.842 4.629.986 1.228 2.431 1.882 4.331 1.959 1.262 0 2.394-.298 3.382-.89a8.893 8.893 0 0 0 2.555-2.315 12.23 12.23 0 0 0 1.717-3.262 24.705 24.705 0 0 0 1.011-3.739"/><path d="M285.245 224.096a204.275 204.275 0 0 0-2.133 6.529 886.108 886.108 0 0 0-1.78 5.815c-1.426 5.698-2.197 10.29-2.315 13.771-.121 3.481.493 5.302 1.842 5.46 1.5.158 3.104-.654 4.805-2.434 1.699-1.783 3.302-3.82 4.809-6.114 1.736-2.61 3.441-5.617 5.104-9.021.787.239 1.463.552 2.018.945.475.401.831.955 1.067 1.668.238.71.12 1.622-.356 2.729-.078.161-.199.518-.354 1.069-.162.552-.438 1.266-.831 2.137-1.269 2.768-2.614 5.319-4.037 7.654-1.423 2.338-2.97 4.414-4.628 6.231-1.27 1.423-2.654 2.536-4.154 3.323-2.137 1.349-4.475 1.94-7.007 1.783-2.217-.316-4.033-1.012-5.457-2.078a12.26 12.26 0 0 1-3.444-3.978c-.871-1.581-1.506-3.363-1.9-5.338-.396-1.979-.592-4-.592-6.059-1.346 3.011-2.694 5.481-4.033 7.419-1.35 1.941-2.496 3.463-3.444 4.573-1.19 1.185-2.614 2.294-4.275 3.323-2.133 1.346-4.471 1.941-7.001 1.779-3.323-.477-5.818-1.801-7.478-3.978-1.661-2.173-2.774-4.746-3.323-7.716-.555-2.964-.713-6.07-.478-9.316.239-3.246.592-6.133 1.069-8.669a801.104 801.104 0 0 0 1.482-6.464c.434-1.941.893-3.782 1.364-5.525a78.71 78.71 0 0 1 1.605-5.162 249.509 249.509 0 0 1 1.956-5.403h-.235c-3.487.874-6.231 1.488-8.253 1.841-2.019.36-3.556.537-4.625.537-1.073 0-1.799-.217-2.195-.651-.397-.437-.676-1.088-.834-1.963a5.085 5.085 0 0 1-.118-1.897c.081-.633.199-1.265.357-1.901a14.27 14.27 0 0 1 .595-2.015c.158.633.669 1.107 1.541 1.423.635.316 1.643.555 3.025.713 1.386.158 3.309.078 5.758-.238l7.003-.952c2.214-5.06 4.331-9.14 6.35-12.225 2.018-3.084 3.581-4.746 4.69-4.984 1.426-.24 2.89-.177 4.39.179 1.504.354 2.93.769 4.275 1.243a37.786 37.786 0 0 1 4.511 2.022c0 .077-.04.158-.121.235a1.968 1.968 0 0 0-.357.475c-.631.874-1.5 2.158-2.609 3.859-1.109 1.702-2.375 3.975-3.798 6.824 3.085-.632 5.282-.672 6.589-.118 1.305.555 2.036 1.346 2.193 2.372.162 1.033-.018 2.12-.532 3.264-.515 1.147-1.012 1.957-1.485 2.437-.077-.081-.198-.276-.357-.595-.156-.316-.532-.613-1.125-.89-.591-.279-1.503-.474-2.728-.595-1.231-.118-3.028-.056-5.4.18a122.626 122.626 0 0 0-4.749 12.168 336.732 336.732 0 0 0-3.799 12.283c-1.506 5.699-2.238 10.11-2.197 13.235.039 3.128.573 5.125 1.603 5.996.871.632 2.257-.022 4.154-1.96 1.9-1.938 3.758-4.609 5.58-8.014a132.61 132.61 0 0 0 1.78-3.736c.713-1.544 1.503-3.264 2.374-5.165.868-1.9 1.759-3.894 2.67-5.991.908-2.097 1.801-4.137 2.668-6.114l.832-2.614c1.823-5.937 3.742-11.294 5.761-16.084 2.018-4.784 3.934-8.724 5.757-11.812a24.827 24.827 0 0 1 2.849-4.628c.946-1.107 2.137-2.155 3.56-3.147 1.423-.986 3.088-1.482 4.985-1.482 1.268 0 2.729.298 4.393.889 1.665.593 3.166 1.306 4.511 2.137 1.346.834 2.391 1.723 3.144 2.669.754.952.931 1.782.533 2.496-.394.635-1.363 1.819-2.904 3.559a188.889 188.889 0 0 1-4.927 5.341 780.944 780.944 0 0 1-4.87 5.051 413.586 413.586 0 0 1-2.61 2.666c-1.826 4.202-3.726 9.106-5.704 14.724"/><path d="M336.644 237.628c.475.081.989.198 1.541.356.397.158.871.316 1.43.475a9.418 9.418 0 0 1 1.541.589c-1.504 4.12-3.283 7.918-5.342 11.399a43.576 43.576 0 0 1-3.026 4.512 38.498 38.498 0 0 1-3.738 4.213 26.223 26.223 0 0 1-4.396 3.441 18.058 18.058 0 0 1-5.103 2.195c-4.351 1.19-8.266 1.367-11.75.539-3.482-.831-6.35-2.378-8.606-4.632-2.254-2.254-3.816-5.063-4.688-8.429-.871-3.361-.871-6.945 0-10.74.872-3.8 2.295-7.242 4.272-10.327 1.979-3.088 4.232-5.676 6.769-7.778 2.529-2.096 5.224-3.578 8.069-4.449 2.85-.868 5.581-.949 8.192-.242 2.054.477 3.657 1.426 4.807 2.852a11.015 11.015 0 0 1 2.254 4.868c.357 1.819.335 3.735-.059 5.757-.399 2.015-1.091 3.856-2.077 5.52a12.707 12.707 0 0 1-3.859 4.095c-1.581 1.066-3.364 1.603-5.342 1.603-1.581 0-2.847-.276-3.798-.831-.949-.555-1.702-1.188-2.254-1.897a6.746 6.746 0 0 1-1.306-2.731 26.38 26.38 0 0 0-1.246 5.758c-.201 1.938-.14 3.72.18 5.342.313 1.621.968 2.948 1.956 3.975.989 1.032 2.354 1.584 4.096 1.661a10.971 10.971 0 0 0 4.213-.592 21.636 21.636 0 0 0 3.975-1.841 25.442 25.442 0 0 0 3.684-2.67 29.981 29.981 0 0 0 3.202-3.205c2.295-2.532 4.431-5.463 6.409-8.786m-18.4-10.444c-1.346.474-2.57 1.383-3.677 2.729-1.113 1.347-2.1 2.929-2.971 4.749a7.08 7.08 0 0 0 2.137.414c.79.038 1.702-.139 2.731-.536 1.819-.628 3.085-1.378 3.798-2.253.713-.869 1.146-1.662 1.308-2.374.237-1.108.155-1.999-.241-2.67-.394-.673-1.42-.695-3.085-.059"/><path d="M369.525 238.342c.948.474 1.504.967 1.662 1.481.157.515.077 1.048-.239 1.603-.316.552-.828 1.132-1.541 1.721a33.32 33.32 0 0 1-2.254 1.721 45.25 45.25 0 0 0-3.798 2.731 122.93 122.93 0 0 1-2.734 2.136 17.023 17.023 0 0 1-.649 6.173c-.597 1.981-1.443 3.742-2.556 5.286-1.107 1.537-2.394 2.787-3.854 3.735-1.47.949-3.029 1.467-4.688 1.544-1.825.081-3.484-.177-4.988-.771-1.506-.596-2.849-1.324-4.036-2.195s-2.136-1.843-2.849-2.911c-.714-1.066-1.145-2.033-1.306-2.905-.235-1.345-.099-2.551.419-3.621.508-1.07 1.262-1.999 2.25-2.79a13.771 13.771 0 0 1 3.386-1.959 47.627 47.627 0 0 1 3.798-1.364c-.076-2.294-.356-4.294-.831-5.996a28.49 28.49 0 0 1-.948-5.4 71.771 71.771 0 0 0-2.077 2.375 19.239 19.239 0 0 0-1.488 2.018 78.92 78.92 0 0 1-1.306 1.901l-.235.474a1.403 1.403 0 0 0-1.007-.301c-.357.041-.695-.136-1.012-.529-.787-.714-1.047-1.566-.769-2.555.273-.986.611-1.839 1.008-2.549l.118-.121c.474-1.026 1.165-2.313 2.08-3.857a67.689 67.689 0 0 1 3.025-4.689 57.04 57.04 0 0 1 3.5-4.511c1.229-1.423 2.475-2.57 3.74-3.442 1.819-1.187 3.502-1.978 5.047-2.374 1.54-.397 2.926-.493 4.154-.298 1.225.202 2.315.636 3.264 1.305a11.723 11.723 0 0 1 2.372 2.198c.63.794.93 1.644.89 2.552a5.01 5.01 0 0 1-.77 2.496 5.41 5.41 0 0 1-1.782 1.776c-.71.437-1.345.536-1.9.298 0-.946-.195-1.641-.589-2.074-.399-.438-.854-.654-1.367-.654-.515 0-1.011.195-1.484.588-.475.4-.828.912-1.07 1.547-.394 1.107-.254 2.831.419 5.165.669 2.335 1.6 5.32 2.787 8.96.632-.313 1.503-.691 2.61-1.128 1.109-.435 2.217-.847 3.323-1.244 1.11-.399 2.08-.734 2.911-1.01.831-.282 1.283-.459 1.364-.536m-25.996 19.701c.317.08.611-.019.891-.297a3.14 3.14 0 0 0 .653-.952c.158-.354.295-.726.413-1.122.12-.394.18-.67.18-.831-.161.161-.475.298-.949.412-.478.12-.831.18-1.069.18-.71.161-1.125.614-1.246 1.361-.119.757.256 1.172 1.127 1.249m2.254-3.441c-.08.081-.117.162-.117.239.08-.077.117-.158.117-.239"/><path d="M228.78 457.566C102.631 457.566 0 354.936 0 228.786 0 102.634 102.631 0 228.78 0c126.152 0 228.786 102.634 228.786 228.786 0 126.15-102.633 228.78-228.786 228.78m0-448.553c-121.183 0-219.771 98.588-219.771 219.773 0 121.183 98.588 219.768 219.771 219.768 121.183 0 219.772-98.585 219.772-219.768.001-121.185-98.589-219.773-219.772-219.773"/><path d="M61.655 215.22c6.929-86.138 79.236-154.114 167.125-154.114 87.892 0 160.199 67.976 167.128 154.114h40.425C429.342 106.664 339.1 20.782 228.78 20.782S28.222 106.664 21.231 215.22h40.424zM396.153 218.825c.121 1.984.211 3.98.254 5.986h40.332c-.044-2.002-.1-3.999-.195-5.986h-40.391zM20.827 224.812h40.328c.044-2.006.137-4.002.255-5.986H21.019a232.376 232.376 0 0 0-.192 5.986M61.208 234.41a169.69 169.69 0 0 1-.105-5.624c0-.124.006-.245.009-.369H20.784c0 .124-.006.245-.006.369 0 1.882.028 3.751.077 5.624h40.353zM396.451 228.417c0 .124.009.245.009.369 0 1.881-.043 3.751-.105 5.624h40.354c.05-1.873.077-3.743.077-5.624 0-.124-.003-.245-.006-.369h-40.329zM396.203 238.013c-4.809 88.181-78.062 158.447-167.423 158.447-89.362 0-162.611-70.267-167.42-158.447H20.992c4.83 110.592 96.005 198.772 207.788 198.772 111.785 0 202.961-88.181 207.791-198.772h-40.368z"/><path d="M108.803 166.292c22.613-43.243 67.893-72.84 119.98-72.84s97.36 29.597 119.977 72.84h10.299c-23.348-48.479-72.968-82.011-130.275-82.011-57.312 0-106.934 33.532-130.282 82.011h10.301zM348.76 291.275c-22.616 43.242-67.89 72.84-119.978 72.84-52.086 0-97.366-29.598-119.979-72.84H98.5c23.348 48.479 72.971 82.011 130.282 82.011 57.309 0 106.929-33.531 130.276-82.011H348.76z"/><path d="M228.783 109.498l4.905 9.942 10.971 1.594-7.936 7.741 1.874 10.929-9.814-5.159-9.809 5.159 1.872-10.929-7.946-7.741 10.972-1.594zM277.953 132.945l3.342 6.771 7.475 1.088-5.404 5.273 1.274 7.444-6.687-3.515-6.681 3.515 1.278-7.444-5.416-5.273 7.474-1.088zM179.61 132.945l3.342 6.771 7.478 1.088-5.413 5.273 1.277 7.444-6.684-3.515-6.684 3.515 1.274-7.444-5.41-5.273 7.475-1.088zM228.783 348.068l4.905-9.942 10.971-1.594-7.936-7.741 1.874-10.928-9.814 5.158-9.809-5.158 1.872 10.928-7.946 7.741 10.972 1.594zM277.953 324.621l3.342-6.77 7.475-1.089-5.404-5.274 1.274-7.443-6.687 3.516-6.681-3.516 1.278 7.443-5.416 5.274 7.474 1.089zM179.61 324.621l3.342-6.77 7.478-1.089-5.413-5.274 1.277-7.443-6.684 3.516-6.684-3.516 1.274 7.443-5.41 5.274 7.475 1.089z"/></svg>